<?xml version="1.0" encoding="UTF-8" standalone="no"?>
<!DOCTYPE svg PUBLIC "-//W3C//DTD SVG 1.1//EN"
 "http://www.w3.org/Graphics/SVG/1.1/DTD/svg11.dtd">
<!-- Generated by graphviz version 2.43.0 (0)
 -->
<!-- Title: CFG for &#39;main&#39; function Pages: 1 -->
<svg width="926pt" height="627pt"
 viewBox="0.00 0.00 926.00 627.00" xmlns="http://www.w3.org/2000/svg" xmlns:xlink="http://www.w3.org/1999/xlink">
<g id="graph0" class="graph" transform="scale(1 1) rotate(0) translate(4 623)">
<title>CFG for &#39;main&#39; function</title>
<polygon fill="white" stroke="transparent" points="-4,4 -4,-623 922,-623 922,4 -4,4"/>
<text text-anchor="middle" x="459" y="-7.8" font-family="Times,serif" font-size="14.00">CFG for &#39;main&#39; function</text>
<!-- Node0x5ecc2238ccd0 -->
<g id="node1" class="node">
<title>Node0x5ecc2238ccd0</title>
<polygon fill="#d65244" fill-opacity="0.439216" stroke="#3d50c3" points="220.5,-317.5 220.5,-618.5 567.5,-618.5 567.5,-317.5 220.5,-317.5"/>
<text text-anchor="start" x="228.5" y="-603.3" font-family="Courier,monospace" font-size="14.00">0:</text>
<polyline fill="none" stroke="#3d50c3" points="220.5,-595.5 567.5,-595.5 "/>
<text text-anchor="start" x="228.5" y="-580.3" font-family="Courier,monospace" font-size="14.00">%1 = alloca i32, align 4</text>
<text text-anchor="start" x="228.5" y="-565.3" font-family="Courier,monospace" font-size="14.00"> %2 = alloca i32, align 4</text>
<text text-anchor="start" x="228.5" y="-550.3" font-family="Courier,monospace" font-size="14.00"> %3 = alloca i32, align 4</text>
<text text-anchor="start" x="228.5" y="-535.3" font-family="Courier,monospace" font-size="14.00"> %4 = alloca i32, align 4</text>
<text text-anchor="start" x="228.5" y="-520.3" font-family="Courier,monospace" font-size="14.00"> %5 = alloca i32, align 4</text>
<text text-anchor="start" x="228.5" y="-505.3" font-family="Courier,monospace" font-size="14.00"> store i32 0, ptr %1, align 4</text>
<text text-anchor="start" x="228.5" y="-490.3" font-family="Courier,monospace" font-size="14.00"> store i32 10, ptr %2, align 4</text>
<text text-anchor="start" x="228.5" y="-475.3" font-family="Courier,monospace" font-size="14.00"> store i32 20, ptr %3, align 4</text>
<text text-anchor="start" x="228.5" y="-460.3" font-family="Courier,monospace" font-size="14.00"> store i32 0, ptr %4, align 4</text>
<text text-anchor="start" x="228.5" y="-445.3" font-family="Courier,monospace" font-size="14.00"> %6 = load i32, ptr %2, align 4</text>
<text text-anchor="start" x="228.5" y="-430.3" font-family="Courier,monospace" font-size="14.00"> %7 = load i32, ptr %3, align 4</text>
<text text-anchor="start" x="228.5" y="-415.3" font-family="Courier,monospace" font-size="14.00"> %8 = add nsw i32 %6, %7</text>
<text text-anchor="start" x="228.5" y="-400.3" font-family="Courier,monospace" font-size="14.00"> %9 = load i32, ptr %2, align 4</text>
<text text-anchor="start" x="228.5" y="-385.3" font-family="Courier,monospace" font-size="14.00"> %10 = load i32, ptr %3, align 4</text>
<text text-anchor="start" x="228.5" y="-370.3" font-family="Courier,monospace" font-size="14.00"> %11 = mul nsw i32 %9, %10</text>
<text text-anchor="start" x="228.5" y="-355.3" font-family="Courier,monospace" font-size="14.00"> %.promoted = load i32, ptr %4, align 4</text>
<text text-anchor="start" x="228.5" y="-340.3" font-family="Courier,monospace" font-size="14.00"> %.promoted1 = load i32, ptr %5, align 1</text>
<text text-anchor="start" x="228.5" y="-325.3" font-family="Courier,monospace" font-size="14.00"> br label %12</text>
</g>
<!-- Node0x5ecc2238cbd0 -->
<g id="node2" class="node">
<title>Node0x5ecc2238cbd0</title>
<polygon fill="#b70d28" fill-opacity="0.439216" stroke="#b70d28" points="192,-166.5 192,-280.5 596,-280.5 596,-166.5 192,-166.5"/>
<text text-anchor="start" x="200" y="-265.3" font-family="Courier,monospace" font-size="14.00">12:</text>
<polyline fill="none" stroke="#b70d28" points="192,-257.5 596,-257.5 "/>
<text text-anchor="start" x="200" y="-242.3" font-family="Courier,monospace" font-size="14.00">%13 = phi i32 [ %8, %16 ], [ %.promoted1, %0 ]</text>
<text text-anchor="start" x="200" y="-227.3" font-family="Courier,monospace" font-size="14.00"> %14 = phi i32 [ %18, %16 ], [ %.promoted, %0 ]</text>
<text text-anchor="start" x="200" y="-212.3" font-family="Courier,monospace" font-size="14.00"> %15 = icmp slt i32 %14, 5</text>
<text text-anchor="start" x="200" y="-197.3" font-family="Courier,monospace" font-size="14.00"> br i1 %15, label %16, label %19</text>
<polyline fill="none" stroke="#b70d28" points="192,-189.5 596,-189.5 "/>
<text text-anchor="middle" x="293" y="-174.3" font-family="Courier,monospace" font-size="14.00">T</text>
<polyline fill="none" stroke="#b70d28" points="394,-166.5 394,-189.5 "/>
<text text-anchor="middle" x="495" y="-174.3" font-family="Courier,monospace" font-size="14.00">F</text>
</g>
<!-- Node0x5ecc2238ccd0&#45;&gt;Node0x5ecc2238cbd0 -->
<g id="edge1" class="edge">
<title>Node0x5ecc2238ccd0&#45;&gt;Node0x5ecc2238cbd0</title>
<g id="a_edge1"><a xlink:title="0 &#45;&gt; 12&#10;Probability 100.00%">
<path fill="none" stroke="black" d="M394,-317.22C394,-308.1 394,-299.21 394,-290.77"/>
<polygon fill="black" stroke="black" points="397.5,-290.71 394,-280.71 390.5,-290.71 397.5,-290.71"/>
</a>
</g>
</g>
<!-- Node0x5ecc22390310 -->
<g id="node3" class="node">
<title>Node0x5ecc22390310</title>
<polygon fill="#b70d28" fill-opacity="0.439216" stroke="#b70d28" points="0,-38.5 0,-114.5 586,-114.5 586,-38.5 0,-38.5"/>
<text text-anchor="start" x="8" y="-99.3" font-family="Courier,monospace" font-size="14.00">16:</text>
<polyline fill="none" stroke="#b70d28" points="0,-91.5 586,-91.5 "/>
<text text-anchor="start" x="8" y="-76.3" font-family="Courier,monospace" font-size="14.00">%17 = call i32 (ptr, ...) @printf(ptr noundef @.str, i32 noundef %11)</text>
<text text-anchor="start" x="8" y="-61.3" font-family="Courier,monospace" font-size="14.00"> %18 = add nsw i32 %14, 1</text>
<text text-anchor="start" x="8" y="-46.3" font-family="Courier,monospace" font-size="14.00"> br label %12, !llvm.loop !6</text>
</g>
<!-- Node0x5ecc2238cbd0&#45;&gt;Node0x5ecc22390310 -->
<g id="edge2" class="edge">
<title>Node0x5ecc2238cbd0:s0&#45;&gt;Node0x5ecc22390310</title>
<g id="a_edge2"><a xlink:title="12 &#45;&gt; 16&#10;Probability 96.88%">
<path fill="none" stroke="black" d="M293,-166C289.95,-152.66 287.93,-138.2 286.95,-124.9"/>
<polygon fill="black" stroke="black" points="290.42,-124.33 286.38,-114.53 283.43,-124.71 290.42,-124.33"/>
</a>
</g>
</g>
<!-- Node0x5ecc223904c0 -->
<g id="node4" class="node">
<title>Node0x5ecc223904c0</title>
<polygon fill="#d65244" fill-opacity="0.439216" stroke="#3d50c3" points="604,-23.5 604,-129.5 918,-129.5 918,-23.5 604,-23.5"/>
<text text-anchor="start" x="612" y="-114.3" font-family="Courier,monospace" font-size="14.00">19:</text>
<polyline fill="none" stroke="#3d50c3" points="604,-106.5 918,-106.5 "/>
<text text-anchor="start" x="612" y="-91.3" font-family="Courier,monospace" font-size="14.00">%.lcssa2 = phi i32 [ %13, %12 ]</text>
<text text-anchor="start" x="612" y="-76.3" font-family="Courier,monospace" font-size="14.00"> %.lcssa = phi i32 [ %14, %12 ]</text>
<text text-anchor="start" x="612" y="-61.3" font-family="Courier,monospace" font-size="14.00"> store i32 %.lcssa, ptr %4, align 4</text>
<text text-anchor="start" x="612" y="-46.3" font-family="Courier,monospace" font-size="14.00"> store i32 %.lcssa2, ptr %5, align 1</text>
<text text-anchor="start" x="612" y="-31.3" font-family="Courier,monospace" font-size="14.00"> ret i32 0</text>
</g>
<!-- Node0x5ecc2238cbd0&#45;&gt;Node0x5ecc223904c0 -->
<g id="edge3" class="edge">
<title>Node0x5ecc2238cbd0:s1&#45;&gt;Node0x5ecc223904c0</title>
<g id="a_edge3"><a xlink:title="12 &#45;&gt; 19&#10;Probability 3.12%">
<path fill="none" stroke="black" d="M597,-177.5C634.95,-177.5 671.57,-157.74 700.54,-135.79"/>
<polygon fill="black" stroke="black" points="702.79,-138.47 708.5,-129.55 698.47,-132.96 702.79,-138.47"/>
</a>
</g>
</g>
<!-- Node0x5ecc22390310&#45;&gt;Node0x5ecc2238cbd0 -->
<g id="edge4" class="edge">
<title>Node0x5ecc22390310&#45;&gt;Node0x5ecc2238cbd0</title>
<g id="a_edge4"><a xlink:title="16 &#45;&gt; 12&#10;Probability 100.00%">
<path fill="none" stroke="black" d="M299.61,-114.72C299.17,-127.32 297.68,-141.73 295.14,-155.58"/>
<polygon fill="black" stroke="black" points="291.68,-155.04 293.11,-165.54 298.54,-156.44 291.68,-155.04"/>
</a>
</g>
</g>
</g>
</svg>
