<?xml version="1.0" encoding="UTF-8" standalone="no"?>
<!DOCTYPE svg PUBLIC "-//W3C//DTD SVG 1.1//EN"
 "http://www.w3.org/Graphics/SVG/1.1/DTD/svg11.dtd">
<!-- Generated by graphviz version 2.43.0 (0)
 -->
<!-- Title: CFG for &#39;main&#39; function Pages: 1 -->
<svg width="712pt" height="597pt"
 viewBox="0.00 0.00 711.50 597.00" xmlns="http://www.w3.org/2000/svg" xmlns:xlink="http://www.w3.org/1999/xlink">
<g id="graph0" class="graph" transform="scale(1 1) rotate(0) translate(4 593)">
<title>CFG for &#39;main&#39; function</title>
<polygon fill="white" stroke="transparent" points="-4,4 -4,-593 707.5,-593 707.5,4 -4,4"/>
<text text-anchor="middle" x="351.75" y="-7.8" font-family="Times,serif" font-size="14.00">CFG for &#39;main&#39; function</text>
<!-- Node0x585b56273b90 -->
<g id="node1" class="node">
<title>Node0x585b56273b90</title>
<polygon fill="#d65244" fill-opacity="0.439216" stroke="#3d50c3" points="231,-407.5 231,-588.5 495,-588.5 495,-407.5 231,-407.5"/>
<text text-anchor="start" x="239" y="-573.3" font-family="Courier,monospace" font-size="14.00">0:</text>
<polyline fill="none" stroke="#3d50c3" points="231,-565.5 495,-565.5 "/>
<text text-anchor="start" x="239" y="-550.3" font-family="Courier,monospace" font-size="14.00">%1 = alloca i32, align 4</text>
<text text-anchor="start" x="239" y="-535.3" font-family="Courier,monospace" font-size="14.00"> %2 = alloca i32, align 4</text>
<text text-anchor="start" x="239" y="-520.3" font-family="Courier,monospace" font-size="14.00"> %3 = alloca i32, align 4</text>
<text text-anchor="start" x="239" y="-505.3" font-family="Courier,monospace" font-size="14.00"> %4 = alloca i32, align 4</text>
<text text-anchor="start" x="239" y="-490.3" font-family="Courier,monospace" font-size="14.00"> %5 = alloca i32, align 4</text>
<text text-anchor="start" x="239" y="-475.3" font-family="Courier,monospace" font-size="14.00"> store i32 0, ptr %1, align 4</text>
<text text-anchor="start" x="239" y="-460.3" font-family="Courier,monospace" font-size="14.00"> store i32 10, ptr %2, align 4</text>
<text text-anchor="start" x="239" y="-445.3" font-family="Courier,monospace" font-size="14.00"> store i32 20, ptr %3, align 4</text>
<text text-anchor="start" x="239" y="-430.3" font-family="Courier,monospace" font-size="14.00"> store i32 0, ptr %4, align 4</text>
<text text-anchor="start" x="239" y="-415.3" font-family="Courier,monospace" font-size="14.00"> br label %6</text>
</g>
<!-- Node0x585b56273a90 -->
<g id="node2" class="node">
<title>Node0x585b56273a90</title>
<polygon fill="#b70d28" fill-opacity="0.439216" stroke="#b70d28" points="231,-271.5 231,-370.5 495,-370.5 495,-271.5 231,-271.5"/>
<text text-anchor="start" x="239" y="-355.3" font-family="Courier,monospace" font-size="14.00">6:</text>
<polyline fill="none" stroke="#b70d28" points="231,-347.5 495,-347.5 "/>
<text text-anchor="start" x="239" y="-332.3" font-family="Courier,monospace" font-size="14.00">%7 = load i32, ptr %4, align 4</text>
<text text-anchor="start" x="239" y="-317.3" font-family="Courier,monospace" font-size="14.00"> %8 = icmp slt i32 %7, 5</text>
<text text-anchor="start" x="239" y="-302.3" font-family="Courier,monospace" font-size="14.00"> br i1 %8, label %9, label %19</text>
<polyline fill="none" stroke="#b70d28" points="231,-294.5 495,-294.5 "/>
<text text-anchor="middle" x="297" y="-279.3" font-family="Courier,monospace" font-size="14.00">T</text>
<polyline fill="none" stroke="#b70d28" points="363,-271.5 363,-294.5 "/>
<text text-anchor="middle" x="429" y="-279.3" font-family="Courier,monospace" font-size="14.00">F</text>
</g>
<!-- Node0x585b56273b90&#45;&gt;Node0x585b56273a90 -->
<g id="edge1" class="edge">
<title>Node0x585b56273b90&#45;&gt;Node0x585b56273a90</title>
<g id="a_edge1"><a xlink:title="0 &#45;&gt; 6&#10;Probability 100.00%">
<path fill="none" stroke="black" d="M363,-407.45C363,-398.48 363,-389.54 363,-381.01"/>
<polygon fill="black" stroke="black" points="366.5,-380.83 363,-370.83 359.5,-380.83 366.5,-380.83"/>
</a>
</g>
</g>
<!-- Node0x585b56276e80 -->
<g id="node3" class="node">
<title>Node0x585b56276e80</title>
<polygon fill="#b70d28" fill-opacity="0.439216" stroke="#b70d28" points="0,-23.5 0,-234.5 594,-234.5 594,-23.5 0,-23.5"/>
<text text-anchor="start" x="8" y="-219.3" font-family="Courier,monospace" font-size="14.00">9:</text>
<polyline fill="none" stroke="#b70d28" points="0,-211.5 594,-211.5 "/>
<text text-anchor="start" x="8" y="-196.3" font-family="Courier,monospace" font-size="14.00">%10 = load i32, ptr %2, align 4</text>
<text text-anchor="start" x="8" y="-181.3" font-family="Courier,monospace" font-size="14.00"> %11 = load i32, ptr %3, align 4</text>
<text text-anchor="start" x="8" y="-166.3" font-family="Courier,monospace" font-size="14.00"> %12 = add nsw i32 %10, %11</text>
<text text-anchor="start" x="8" y="-151.3" font-family="Courier,monospace" font-size="14.00"> store i32 %12, ptr %5, align 4</text>
<text text-anchor="start" x="8" y="-136.3" font-family="Courier,monospace" font-size="14.00"> %13 = load i32, ptr %2, align 4</text>
<text text-anchor="start" x="8" y="-121.3" font-family="Courier,monospace" font-size="14.00"> %14 = load i32, ptr %3, align 4</text>
<text text-anchor="start" x="8" y="-106.3" font-family="Courier,monospace" font-size="14.00"> %15 = mul nsw i32 %13, %14</text>
<text text-anchor="start" x="8" y="-91.3" font-family="Courier,monospace" font-size="14.00"> %16 = call i32 (ptr, ...) @printf(ptr noundef @.str, i32 noundef %15)</text>
<text text-anchor="start" x="8" y="-76.3" font-family="Courier,monospace" font-size="14.00"> %17 = load i32, ptr %4, align 4</text>
<text text-anchor="start" x="8" y="-61.3" font-family="Courier,monospace" font-size="14.00"> %18 = add nsw i32 %17, 1</text>
<text text-anchor="start" x="8" y="-46.3" font-family="Courier,monospace" font-size="14.00"> store i32 %18, ptr %4, align 4</text>
<text text-anchor="start" x="8" y="-31.3" font-family="Courier,monospace" font-size="14.00"> br label %6, !llvm.loop !6</text>
</g>
<!-- Node0x585b56273a90&#45;&gt;Node0x585b56276e80 -->
<g id="edge2" class="edge">
<title>Node0x585b56273a90:s0&#45;&gt;Node0x585b56276e80</title>
<g id="a_edge2"><a xlink:title="6 &#45;&gt; 9&#10;Probability 96.88%">
<path fill="none" stroke="black" d="M297,-271C295.77,-262.46 294.71,-253.64 293.82,-244.75"/>
<polygon fill="black" stroke="black" points="297.3,-244.35 292.89,-234.72 290.33,-245 297.3,-244.35"/>
</a>
</g>
</g>
<!-- Node0x585b56276ed0 -->
<g id="node4" class="node">
<title>Node0x585b56276ed0</title>
<polygon fill="#d65244" fill-opacity="0.439216" stroke="#3d50c3" points="612.5,-106 612.5,-152 703.5,-152 703.5,-106 612.5,-106"/>
<text text-anchor="start" x="620.5" y="-136.8" font-family="Courier,monospace" font-size="14.00">19:</text>
<polyline fill="none" stroke="#3d50c3" points="612.5,-129 703.5,-129 "/>
<text text-anchor="start" x="620.5" y="-113.8" font-family="Courier,monospace" font-size="14.00">ret i32 0</text>
</g>
<!-- Node0x585b56273a90&#45;&gt;Node0x585b56276ed0 -->
<g id="edge3" class="edge">
<title>Node0x585b56273a90:s1&#45;&gt;Node0x585b56276ed0</title>
<g id="a_edge3"><a xlink:title="6 &#45;&gt; 19&#10;Probability 3.12%">
<path fill="none" stroke="black" d="M496,-283C548.12,-283 565.04,-270.72 603,-235 624.28,-214.98 638.87,-184.86 647.65,-162.01"/>
<polygon fill="black" stroke="black" points="651.02,-163 651.17,-152.4 644.45,-160.59 651.02,-163"/>
</a>
</g>
</g>
<!-- Node0x585b56276e80&#45;&gt;Node0x585b56273a90 -->
<g id="edge4" class="edge">
<title>Node0x585b56276e80&#45;&gt;Node0x585b56273a90</title>
<g id="a_edge4"><a xlink:title="9 &#45;&gt; 6&#10;Probability 100.00%">
<path fill="none" stroke="black" d="M301.11,-234.79C300.36,-243.47 299.45,-252.19 298.38,-260.72"/>
<polygon fill="black" stroke="black" points="294.91,-260.26 297.05,-270.63 301.85,-261.19 294.91,-260.26"/>
</a>
</g>
</g>
</g>
</svg>
