<?xml version="1.0" encoding="UTF-8" standalone="no"?>
<!DOCTYPE svg PUBLIC "-//W3C//DTD SVG 1.1//EN"
 "http://www.w3.org/Graphics/SVG/1.1/DTD/svg11.dtd">
<!-- Generated by graphviz version 2.43.0 (0)
 -->
<!-- Title: CFG for &#39;is_prime&#39; function Pages: 1 -->
<svg width="699pt" height="832pt"
 viewBox="0.00 0.00 699.00 832.00" xmlns="http://www.w3.org/2000/svg" xmlns:xlink="http://www.w3.org/1999/xlink">
<g id="graph0" class="graph" transform="scale(1 1) rotate(0) translate(4 828)">
<title>CFG for &#39;is_prime&#39; function</title>
<polygon fill="white" stroke="transparent" points="-4,4 -4,-828 695,-828 695,4 -4,4"/>
<text text-anchor="middle" x="345.5" y="-7.8" font-family="Times,serif" font-size="14.00">CFG for &#39;is_prime&#39; function</text>
<!-- Node0x62934644ebb0 -->
<g id="node1" class="node">
<title>Node0x62934644ebb0</title>
<polygon fill="#cc403a" fill-opacity="0.439216" stroke="#3d50c3" points="129,-664.5 129,-823.5 401,-823.5 401,-664.5 129,-664.5"/>
<text text-anchor="start" x="137" y="-808.3" font-family="Courier,monospace" font-size="14.00">1:</text>
<polyline fill="none" stroke="#3d50c3" points="129,-800.5 401,-800.5 "/>
<text text-anchor="start" x="137" y="-785.3" font-family="Courier,monospace" font-size="14.00">%2 = alloca i32, align 4</text>
<text text-anchor="start" x="137" y="-770.3" font-family="Courier,monospace" font-size="14.00"> %3 = alloca i32, align 4</text>
<text text-anchor="start" x="137" y="-755.3" font-family="Courier,monospace" font-size="14.00"> %4 = alloca i32, align 4</text>
<text text-anchor="start" x="137" y="-740.3" font-family="Courier,monospace" font-size="14.00"> store i32 %0, ptr %3, align 4</text>
<text text-anchor="start" x="137" y="-725.3" font-family="Courier,monospace" font-size="14.00"> %5 = load i32, ptr %3, align 4</text>
<text text-anchor="start" x="137" y="-710.3" font-family="Courier,monospace" font-size="14.00"> %6 = icmp sle i32 %5, 1</text>
<text text-anchor="start" x="137" y="-695.3" font-family="Courier,monospace" font-size="14.00"> br i1 %6, label %7, label %8</text>
<polyline fill="none" stroke="#3d50c3" points="129,-687.5 401,-687.5 "/>
<text text-anchor="middle" x="197" y="-672.3" font-family="Courier,monospace" font-size="14.00">T</text>
<polyline fill="none" stroke="#3d50c3" points="265,-664.5 265,-687.5 "/>
<text text-anchor="middle" x="333" y="-672.3" font-family="Courier,monospace" font-size="14.00">F</text>
</g>
<!-- Node0x62934644eab0 -->
<g id="node2" class="node">
<title>Node0x62934644eab0</title>
<polygon fill="#d0473d" fill-opacity="0.439216" stroke="#3d50c3" points="0,-442 0,-503 248,-503 248,-442 0,-442"/>
<text text-anchor="start" x="8" y="-487.8" font-family="Courier,monospace" font-size="14.00">7:</text>
<polyline fill="none" stroke="#3d50c3" points="0,-480 248,-480 "/>
<text text-anchor="start" x="8" y="-464.8" font-family="Courier,monospace" font-size="14.00">store i32 0, ptr %2, align 4</text>
<text text-anchor="start" x="8" y="-449.8" font-family="Courier,monospace" font-size="14.00"> br label %24</text>
</g>
<!-- Node0x62934644ebb0&#45;&gt;Node0x62934644eab0 -->
<g id="edge1" class="edge">
<title>Node0x62934644ebb0:s0&#45;&gt;Node0x62934644eab0</title>
<g id="a_edge1"><a xlink:title="1 &#45;&gt; 7&#10;Probability 50.00%">
<path fill="none" stroke="black" d="M197,-664C197,-608.49 169.64,-549.55 148.42,-512.19"/>
<polygon fill="black" stroke="black" points="151.23,-510.05 143.18,-503.17 145.18,-513.57 151.23,-510.05"/>
</a>
</g>
</g>
<!-- Node0x629346450920 -->
<g id="node3" class="node">
<title>Node0x629346450920</title>
<polygon fill="#d0473d" fill-opacity="0.439216" stroke="#3d50c3" points="250,-566.5 250,-627.5 498,-627.5 498,-566.5 250,-566.5"/>
<text text-anchor="start" x="258" y="-612.3" font-family="Courier,monospace" font-size="14.00">8:</text>
<polyline fill="none" stroke="#3d50c3" points="250,-604.5 498,-604.5 "/>
<text text-anchor="start" x="258" y="-589.3" font-family="Courier,monospace" font-size="14.00">store i32 2, ptr %4, align 4</text>
<text text-anchor="start" x="258" y="-574.3" font-family="Courier,monospace" font-size="14.00"> br label %9</text>
</g>
<!-- Node0x62934644ebb0&#45;&gt;Node0x629346450920 -->
<g id="edge2" class="edge">
<title>Node0x62934644ebb0:s1&#45;&gt;Node0x629346450920</title>
<g id="a_edge2"><a xlink:title="1 &#45;&gt; 8&#10;Probability 50.00%">
<path fill="none" stroke="black" d="M333,-664C333,-654.29 336.24,-644.82 340.9,-636.23"/>
<polygon fill="black" stroke="black" points="343.94,-637.96 346.2,-627.61 337.98,-634.3 343.94,-637.96"/>
</a>
</g>
</g>
<!-- Node0x629346450f40 -->
<g id="node4" class="node">
<title>Node0x629346450f40</title>
<polygon fill="#cc403a" fill-opacity="0.439216" stroke="#3d50c3" points="91,-38.5 91,-99.5 363,-99.5 363,-38.5 91,-38.5"/>
<text text-anchor="start" x="99" y="-84.3" font-family="Courier,monospace" font-size="14.00">24:</text>
<polyline fill="none" stroke="#3d50c3" points="91,-76.5 363,-76.5 "/>
<text text-anchor="start" x="99" y="-61.3" font-family="Courier,monospace" font-size="14.00">%25 = load i32, ptr %2, align 4</text>
<text text-anchor="start" x="99" y="-46.3" font-family="Courier,monospace" font-size="14.00"> ret i32 %25</text>
</g>
<!-- Node0x62934644eab0&#45;&gt;Node0x629346450f40 -->
<g id="edge3" class="edge">
<title>Node0x62934644eab0&#45;&gt;Node0x629346450f40</title>
<g id="a_edge3"><a xlink:title="7 &#45;&gt; 24&#10;Probability 100.00%">
<path fill="none" stroke="black" d="M110.61,-441.76C85.97,-382.24 40.62,-246.01 94,-151 104.79,-131.79 122.2,-116.6 140.91,-104.82"/>
<polygon fill="black" stroke="black" points="142.79,-107.77 149.58,-99.64 139.2,-101.76 142.79,-107.77"/>
</a>
</g>
</g>
<!-- Node0x6293464516e0 -->
<g id="node5" class="node">
<title>Node0x6293464516e0</title>
<polygon fill="#b70d28" fill-opacity="0.439216" stroke="#b70d28" points="291.5,-415.5 291.5,-529.5 572.5,-529.5 572.5,-415.5 291.5,-415.5"/>
<text text-anchor="start" x="299.5" y="-514.3" font-family="Courier,monospace" font-size="14.00">9:</text>
<polyline fill="none" stroke="#b70d28" points="291.5,-506.5 572.5,-506.5 "/>
<text text-anchor="start" x="299.5" y="-491.3" font-family="Courier,monospace" font-size="14.00">%10 = load i32, ptr %4, align 4</text>
<text text-anchor="start" x="299.5" y="-476.3" font-family="Courier,monospace" font-size="14.00"> %11 = load i32, ptr %3, align 4</text>
<text text-anchor="start" x="299.5" y="-461.3" font-family="Courier,monospace" font-size="14.00"> %12 = icmp slt i32 %10, %11</text>
<text text-anchor="start" x="299.5" y="-446.3" font-family="Courier,monospace" font-size="14.00"> br i1 %12, label %13, label %23</text>
<polyline fill="none" stroke="#b70d28" points="291.5,-438.5 572.5,-438.5 "/>
<text text-anchor="middle" x="361.5" y="-423.3" font-family="Courier,monospace" font-size="14.00">T</text>
<polyline fill="none" stroke="#b70d28" points="431.5,-415.5 431.5,-438.5 "/>
<text text-anchor="middle" x="502" y="-423.3" font-family="Courier,monospace" font-size="14.00">F</text>
</g>
<!-- Node0x629346450920&#45;&gt;Node0x6293464516e0 -->
<g id="edge4" class="edge">
<title>Node0x629346450920&#45;&gt;Node0x6293464516e0</title>
<g id="a_edge4"><a xlink:title="8 &#45;&gt; 9&#10;Probability 100.00%">
<path fill="none" stroke="black" d="M388.04,-566.35C392,-557.98 396.48,-548.52 401.02,-538.93"/>
<polygon fill="black" stroke="black" points="404.27,-540.26 405.38,-529.72 397.94,-537.26 404.27,-540.26"/>
</a>
</g>
</g>
<!-- Node0x6293464518a0 -->
<g id="node6" class="node">
<title>Node0x6293464518a0</title>
<polygon fill="#b70d28" fill-opacity="0.439216" stroke="#b70d28" points="103.5,-249.5 103.5,-378.5 384.5,-378.5 384.5,-249.5 103.5,-249.5"/>
<text text-anchor="start" x="111.5" y="-363.3" font-family="Courier,monospace" font-size="14.00">13:</text>
<polyline fill="none" stroke="#b70d28" points="103.5,-355.5 384.5,-355.5 "/>
<text text-anchor="start" x="111.5" y="-340.3" font-family="Courier,monospace" font-size="14.00">%14 = load i32, ptr %3, align 4</text>
<text text-anchor="start" x="111.5" y="-325.3" font-family="Courier,monospace" font-size="14.00"> %15 = load i32, ptr %4, align 4</text>
<text text-anchor="start" x="111.5" y="-310.3" font-family="Courier,monospace" font-size="14.00"> %16 = srem i32 %14, %15</text>
<text text-anchor="start" x="111.5" y="-295.3" font-family="Courier,monospace" font-size="14.00"> %17 = icmp eq i32 %16, 0</text>
<text text-anchor="start" x="111.5" y="-280.3" font-family="Courier,monospace" font-size="14.00"> br i1 %17, label %18, label %19</text>
<polyline fill="none" stroke="#b70d28" points="103.5,-272.5 384.5,-272.5 "/>
<text text-anchor="middle" x="173.5" y="-257.3" font-family="Courier,monospace" font-size="14.00">T</text>
<polyline fill="none" stroke="#b70d28" points="243.5,-249.5 243.5,-272.5 "/>
<text text-anchor="middle" x="314" y="-257.3" font-family="Courier,monospace" font-size="14.00">F</text>
</g>
<!-- Node0x6293464516e0&#45;&gt;Node0x6293464518a0 -->
<g id="edge5" class="edge">
<title>Node0x6293464516e0:s0&#45;&gt;Node0x6293464518a0</title>
<g id="a_edge5"><a xlink:title="9 &#45;&gt; 13&#10;Probability 96.88%">
<path fill="none" stroke="black" d="M290,-426.5C268.94,-426.5 257.32,-409.28 250.99,-388.38"/>
<polygon fill="black" stroke="black" points="254.34,-387.36 248.43,-378.57 247.56,-389.13 254.34,-387.36"/>
</a>
</g>
</g>
<!-- Node0x6293464518f0 -->
<g id="node7" class="node">
<title>Node0x6293464518f0</title>
<polygon fill="#d65244" fill-opacity="0.439216" stroke="#3d50c3" points="403,-283.5 403,-344.5 651,-344.5 651,-283.5 403,-283.5"/>
<text text-anchor="start" x="411" y="-329.3" font-family="Courier,monospace" font-size="14.00">23:</text>
<polyline fill="none" stroke="#3d50c3" points="403,-321.5 651,-321.5 "/>
<text text-anchor="start" x="411" y="-306.3" font-family="Courier,monospace" font-size="14.00">store i32 1, ptr %2, align 4</text>
<text text-anchor="start" x="411" y="-291.3" font-family="Courier,monospace" font-size="14.00"> br label %24</text>
</g>
<!-- Node0x6293464516e0&#45;&gt;Node0x6293464518f0 -->
<g id="edge6" class="edge">
<title>Node0x6293464516e0:s1&#45;&gt;Node0x6293464518f0</title>
<g id="a_edge6"><a xlink:title="9 &#45;&gt; 23&#10;Probability 3.12%">
<path fill="none" stroke="black" d="M502,-415C502,-394.62 506.95,-372.57 512.44,-354.38"/>
<polygon fill="black" stroke="black" points="515.82,-355.3 515.52,-344.71 509.15,-353.18 515.82,-355.3"/>
</a>
</g>
</g>
<!-- Node0x629346451b30 -->
<g id="node8" class="node">
<title>Node0x629346451b30</title>
<polygon fill="#d65244" fill-opacity="0.439216" stroke="#3d50c3" points="103,-151.5 103,-212.5 351,-212.5 351,-151.5 103,-151.5"/>
<text text-anchor="start" x="111" y="-197.3" font-family="Courier,monospace" font-size="14.00">18:</text>
<polyline fill="none" stroke="#3d50c3" points="103,-189.5 351,-189.5 "/>
<text text-anchor="start" x="111" y="-174.3" font-family="Courier,monospace" font-size="14.00">store i32 0, ptr %2, align 4</text>
<text text-anchor="start" x="111" y="-159.3" font-family="Courier,monospace" font-size="14.00"> br label %24</text>
</g>
<!-- Node0x6293464518a0&#45;&gt;Node0x629346451b30 -->
<g id="edge7" class="edge">
<title>Node0x6293464518a0:s0&#45;&gt;Node0x629346451b30</title>
<g id="a_edge7"><a xlink:title="13 &#45;&gt; 18&#10;Probability 3.12%">
<path fill="none" stroke="black" d="M173,-249C173,-238.78 176.92,-229.28 182.65,-220.85"/>
<polygon fill="black" stroke="black" points="185.55,-222.83 188.91,-212.79 180.01,-218.54 185.55,-222.83"/>
</a>
</g>
</g>
<!-- Node0x629346451b80 -->
<g id="node9" class="node">
<title>Node0x629346451b80</title>
<polygon fill="#b70d28" fill-opacity="0.439216" stroke="#b70d28" points="465,-159 465,-205 581,-205 581,-159 465,-159"/>
<text text-anchor="start" x="473" y="-189.8" font-family="Courier,monospace" font-size="14.00">19:</text>
<polyline fill="none" stroke="#b70d28" points="465,-182 581,-182 "/>
<text text-anchor="start" x="473" y="-166.8" font-family="Courier,monospace" font-size="14.00">br label %20</text>
</g>
<!-- Node0x6293464518a0&#45;&gt;Node0x629346451b80 -->
<g id="edge8" class="edge">
<title>Node0x6293464518a0:s1&#45;&gt;Node0x629346451b80</title>
<g id="a_edge8"><a xlink:title="13 &#45;&gt; 19&#10;Probability 96.88%">
<path fill="none" stroke="black" d="M386,-261C392.41,-261 389.21,-253.26 394,-249 411.92,-233.04 434.39,-219.81 455.54,-209.49"/>
<polygon fill="black" stroke="black" points="457.28,-212.54 464.82,-205.1 454.28,-206.21 457.28,-212.54"/>
</a>
</g>
</g>
<!-- Node0x6293464518f0&#45;&gt;Node0x629346450f40 -->
<g id="edge12" class="edge">
<title>Node0x6293464518f0&#45;&gt;Node0x629346450f40</title>
<g id="a_edge12"><a xlink:title="23 &#45;&gt; 24&#10;Probability 100.00%">
<path fill="none" stroke="black" d="M500.39,-283.46C468.82,-249.32 413.67,-192.53 360,-151 338.39,-134.27 313.11,-118.13 290.42,-104.71"/>
<polygon fill="black" stroke="black" points="291.94,-101.55 281.54,-99.52 288.41,-107.59 291.94,-101.55"/>
</a>
</g>
</g>
<!-- Node0x629346451b30&#45;&gt;Node0x629346450f40 -->
<g id="edge9" class="edge">
<title>Node0x629346451b30&#45;&gt;Node0x629346450f40</title>
<g id="a_edge9"><a xlink:title="18 &#45;&gt; 24&#10;Probability 100.00%">
<path fill="none" stroke="black" d="M227,-151.25C227,-138.56 227,-123.56 227,-109.93"/>
<polygon fill="black" stroke="black" points="230.5,-109.83 227,-99.83 223.5,-109.83 230.5,-109.83"/>
</a>
</g>
</g>
<!-- Node0x629346451dd0 -->
<g id="node10" class="node">
<title>Node0x629346451dd0</title>
<polygon fill="#b70d28" fill-opacity="0.439216" stroke="#b70d28" points="419,-23.5 419,-114.5 691,-114.5 691,-23.5 419,-23.5"/>
<text text-anchor="start" x="427" y="-99.3" font-family="Courier,monospace" font-size="14.00">20:</text>
<polyline fill="none" stroke="#b70d28" points="419,-91.5 691,-91.5 "/>
<text text-anchor="start" x="427" y="-76.3" font-family="Courier,monospace" font-size="14.00">%21 = load i32, ptr %4, align 4</text>
<text text-anchor="start" x="427" y="-61.3" font-family="Courier,monospace" font-size="14.00"> %22 = add nsw i32 %21, 1</text>
<text text-anchor="start" x="427" y="-46.3" font-family="Courier,monospace" font-size="14.00"> store i32 %22, ptr %4, align 4</text>
<text text-anchor="start" x="427" y="-31.3" font-family="Courier,monospace" font-size="14.00"> br label %9, !llvm.loop !6</text>
</g>
<!-- Node0x629346451b80&#45;&gt;Node0x629346451dd0 -->
<g id="edge10" class="edge">
<title>Node0x629346451b80&#45;&gt;Node0x629346451dd0</title>
<g id="a_edge10"><a xlink:title="19 &#45;&gt; 20&#10;Probability 100.00%">
<path fill="none" stroke="black" d="M529.4,-158.8C532.28,-148.82 535.81,-136.55 539.33,-124.36"/>
<polygon fill="black" stroke="black" points="542.72,-125.22 542.13,-114.64 536,-123.28 542.72,-125.22"/>
</a>
</g>
</g>
<!-- Node0x629346451dd0&#45;&gt;Node0x6293464516e0 -->
<g id="edge11" class="edge">
<title>Node0x629346451dd0&#45;&gt;Node0x6293464516e0</title>
<g id="a_edge11"><a xlink:title="20 &#45;&gt; 9&#10;Probability 100.00%">
<path fill="none" stroke="black" d="M593.58,-114.75C643.16,-177.98 716.49,-295.11 660,-379 641.35,-406.69 612.83,-426.1 582.21,-439.7"/>
<polygon fill="black" stroke="black" points="580.5,-436.62 572.65,-443.73 583.22,-443.07 580.5,-436.62"/>
</a>
</g>
</g>
</g>
</svg>
