<?xml version="1.0" encoding="UTF-8" standalone="no"?>
<!DOCTYPE svg PUBLIC "-//W3C//DTD SVG 1.1//EN"
 "http://www.w3.org/Graphics/SVG/1.1/DTD/svg11.dtd">
<!-- Generated by graphviz version 2.43.0 (0)
 -->
<!-- Title: CFG for &#39;is_prime&#39; function Pages: 1 -->
<svg width="733pt" height="614pt"
 viewBox="0.00 0.00 732.60 614.00" xmlns="http://www.w3.org/2000/svg" xmlns:xlink="http://www.w3.org/1999/xlink">
<g id="graph0" class="graph" transform="scale(1 1) rotate(0) translate(4 610)">
<title>CFG for &#39;is_prime&#39; function</title>
<polygon fill="white" stroke="transparent" points="-4,4 -4,-610 728.6,-610 728.6,4 -4,4"/>
<text text-anchor="middle" x="362.3" y="-7.8" font-family="Times,serif" font-size="14.00">CFG for &#39;is_prime&#39; function</text>
<!-- Node0x58aed9b14200 -->
<g id="node1" class="node">
<title>Node0x58aed9b14200</title>
<polygon fill="#cc403a" fill-opacity="0.439216" stroke="#3d50c3" points="36.1,-521.5 36.1,-605.5 490.1,-605.5 490.1,-521.5 36.1,-521.5"/>
<text text-anchor="start" x="44.1" y="-590.3" font-family="Courier,monospace" font-size="14.00">entrance:</text>
<polyline fill="none" stroke="#3d50c3" points="36.1,-582.5 490.1,-582.5 "/>
<text text-anchor="start" x="44.1" y="-567.3" font-family="Courier,monospace" font-size="14.00">%is_prime = icmp sle i32 %n, 1</text>
<text text-anchor="start" x="44.1" y="-552.3" font-family="Courier,monospace" font-size="14.00"> br i1 %is_prime, label %not_prime, label %initialize</text>
<polyline fill="none" stroke="#3d50c3" points="36.1,-544.5 490.1,-544.5 "/>
<text text-anchor="middle" x="149.6" y="-529.3" font-family="Courier,monospace" font-size="14.00">T</text>
<polyline fill="none" stroke="#3d50c3" points="263.1,-521.5 263.1,-544.5 "/>
<text text-anchor="middle" x="376.6" y="-529.3" font-family="Courier,monospace" font-size="14.00">F</text>
</g>
<!-- Node0x58aed9b15a40 -->
<g id="node2" class="node">
<title>Node0x58aed9b15a40</title>
<polygon fill="#cc403a" fill-opacity="0.439216" stroke="#3d50c3" points="137.6,-38.5 137.6,-84.5 236.6,-84.5 236.6,-38.5 137.6,-38.5"/>
<text text-anchor="start" x="145.6" y="-69.3" font-family="Courier,monospace" font-size="14.00">not_prime:</text>
<polyline fill="none" stroke="#3d50c3" points="137.6,-61.5 236.6,-61.5 "/>
<text text-anchor="start" x="145.6" y="-46.3" font-family="Courier,monospace" font-size="14.00">ret i32 0</text>
</g>
<!-- Node0x58aed9b14200&#45;&gt;Node0x58aed9b15a40 -->
<g id="edge1" class="edge">
<title>Node0x58aed9b14200:s0&#45;&gt;Node0x58aed9b15a40</title>
<g id="a_edge1"><a xlink:title="entrance &#45;&gt; not_prime&#10;Probability 50.00%">
<path fill="none" stroke="black" d="M35.1,-532.5C-54.08,-532.5 52.67,-213.32 97.1,-136 107.46,-117.98 124.06,-102.56 140.2,-90.56"/>
<polygon fill="black" stroke="black" points="142.45,-93.26 148.56,-84.6 138.39,-87.55 142.45,-93.26"/>
</a>
</g>
</g>
<!-- Node0x58aed9b15ac0 -->
<g id="node3" class="node">
<title>Node0x58aed9b15ac0</title>
<polygon fill="#d0473d" fill-opacity="0.439216" stroke="#3d50c3" points="264.6,-408.5 264.6,-484.5 561.6,-484.5 561.6,-408.5 264.6,-408.5"/>
<text text-anchor="start" x="272.6" y="-469.3" font-family="Courier,monospace" font-size="14.00">initialize:</text>
<polyline fill="none" stroke="#3d50c3" points="264.6,-461.5 561.6,-461.5 "/>
<text text-anchor="start" x="272.6" y="-446.3" font-family="Courier,monospace" font-size="14.00">%i_addr = alloca i32, align 4</text>
<text text-anchor="start" x="272.6" y="-431.3" font-family="Courier,monospace" font-size="14.00"> store i32 2, ptr %i_addr, align 4</text>
<text text-anchor="start" x="272.6" y="-416.3" font-family="Courier,monospace" font-size="14.00"> br label %loop_cond</text>
</g>
<!-- Node0x58aed9b14200&#45;&gt;Node0x58aed9b15ac0 -->
<g id="edge2" class="edge">
<title>Node0x58aed9b14200:s1&#45;&gt;Node0x58aed9b15ac0</title>
<g id="a_edge2"><a xlink:title="entrance &#45;&gt; initialize&#10;Probability 50.00%">
<path fill="none" stroke="black" d="M377.1,-521C377.1,-511.82 379.4,-502.59 382.83,-493.92"/>
<polygon fill="black" stroke="black" points="386.04,-495.32 386.94,-484.76 379.65,-492.45 386.04,-495.32"/>
</a>
</g>
</g>
<!-- Node0x58aed9b163b0 -->
<g id="node4" class="node">
<title>Node0x58aed9b163b0</title>
<polygon fill="#b70d28" fill-opacity="0.439216" stroke="#b70d28" points="295.6,-272.5 295.6,-371.5 724.6,-371.5 724.6,-272.5 295.6,-272.5"/>
<text text-anchor="start" x="303.6" y="-356.3" font-family="Courier,monospace" font-size="14.00">loop_cond:</text>
<polyline fill="none" stroke="#b70d28" points="295.6,-348.5 724.6,-348.5 "/>
<text text-anchor="start" x="303.6" y="-333.3" font-family="Courier,monospace" font-size="14.00">%i = load i32, ptr %i_addr, align 4</text>
<text text-anchor="start" x="303.6" y="-318.3" font-family="Courier,monospace" font-size="14.00"> %is_loop_end = icmp sle i32 %i, %n</text>
<text text-anchor="start" x="303.6" y="-303.3" font-family="Courier,monospace" font-size="14.00"> br i1 %is_loop_end, label %for_body, label %prime</text>
<polyline fill="none" stroke="#b70d28" points="295.6,-295.5 724.6,-295.5 "/>
<text text-anchor="middle" x="402.6" y="-280.3" font-family="Courier,monospace" font-size="14.00">T</text>
<polyline fill="none" stroke="#b70d28" points="509.6,-272.5 509.6,-295.5 "/>
<text text-anchor="middle" x="617.1" y="-280.3" font-family="Courier,monospace" font-size="14.00">F</text>
</g>
<!-- Node0x58aed9b15ac0&#45;&gt;Node0x58aed9b163b0 -->
<g id="edge3" class="edge">
<title>Node0x58aed9b15ac0&#45;&gt;Node0x58aed9b163b0</title>
<g id="a_edge3"><a xlink:title="initialize &#45;&gt; loop_cond&#10;Probability 100.00%">
<path fill="none" stroke="black" d="M442.47,-408.41C449.61,-399.39 457.42,-389.54 465.11,-379.83"/>
<polygon fill="black" stroke="black" points="468.05,-381.74 471.52,-371.73 462.56,-377.4 468.05,-381.74"/>
</a>
</g>
</g>
<!-- Node0x58aed9b16570 -->
<g id="node5" class="node">
<title>Node0x58aed9b16570</title>
<polygon fill="#b70d28" fill-opacity="0.439216" stroke="#b70d28" points="106.1,-136.5 106.1,-235.5 576.1,-235.5 576.1,-136.5 106.1,-136.5"/>
<text text-anchor="start" x="114.1" y="-220.3" font-family="Courier,monospace" font-size="14.00">for_body:</text>
<polyline fill="none" stroke="#b70d28" points="106.1,-212.5 576.1,-212.5 "/>
<text text-anchor="start" x="114.1" y="-197.3" font-family="Courier,monospace" font-size="14.00">%remainder = srem i32 %n, %i</text>
<text text-anchor="start" x="114.1" y="-182.3" font-family="Courier,monospace" font-size="14.00"> %is_divisible = icmp eq i32 %remainder, 0</text>
<text text-anchor="start" x="114.1" y="-167.3" font-family="Courier,monospace" font-size="14.00"> br i1 %is_divisible, label %not_prime, label %loop_inc</text>
<polyline fill="none" stroke="#b70d28" points="106.1,-159.5 576.1,-159.5 "/>
<text text-anchor="middle" x="223.6" y="-144.3" font-family="Courier,monospace" font-size="14.00">T</text>
<polyline fill="none" stroke="#b70d28" points="341.1,-136.5 341.1,-159.5 "/>
<text text-anchor="middle" x="458.6" y="-144.3" font-family="Courier,monospace" font-size="14.00">F</text>
</g>
<!-- Node0x58aed9b163b0&#45;&gt;Node0x58aed9b16570 -->
<g id="edge4" class="edge">
<title>Node0x58aed9b163b0:s0&#45;&gt;Node0x58aed9b16570</title>
<g id="a_edge4"><a xlink:title="loop_cond &#45;&gt; for_body&#10;Probability 96.88%">
<path fill="none" stroke="black" d="M402.1,-272C402.1,-262.53 399.57,-253.39 395.54,-244.84"/>
<polygon fill="black" stroke="black" points="398.48,-242.92 390.63,-235.81 392.33,-246.26 398.48,-242.92"/>
</a>
</g>
</g>
<!-- Node0x58aed9b165f0 -->
<g id="node6" class="node">
<title>Node0x58aed9b165f0</title>
<polygon fill="#d65244" fill-opacity="0.439216" stroke="#3d50c3" points="632.6,-163 632.6,-209 723.6,-209 723.6,-163 632.6,-163"/>
<text text-anchor="start" x="640.6" y="-193.8" font-family="Courier,monospace" font-size="14.00">prime:</text>
<polyline fill="none" stroke="#3d50c3" points="632.6,-186 723.6,-186 "/>
<text text-anchor="start" x="640.6" y="-170.8" font-family="Courier,monospace" font-size="14.00">ret i32 1</text>
</g>
<!-- Node0x58aed9b163b0&#45;&gt;Node0x58aed9b165f0 -->
<g id="edge5" class="edge">
<title>Node0x58aed9b163b0:s1&#45;&gt;Node0x58aed9b165f0</title>
<g id="a_edge5"><a xlink:title="loop_cond &#45;&gt; prime&#10;Probability 3.12%">
<path fill="none" stroke="black" d="M617.1,-272C617.1,-250.96 629.59,-231.57 643.26,-216.63"/>
<polygon fill="black" stroke="black" points="645.99,-218.84 650.46,-209.24 640.97,-213.96 645.99,-218.84"/>
</a>
</g>
</g>
<!-- Node0x58aed9b16570&#45;&gt;Node0x58aed9b15a40 -->
<g id="edge6" class="edge">
<title>Node0x58aed9b16570:s0&#45;&gt;Node0x58aed9b15a40</title>
<g id="a_edge6"><a xlink:title="for_body &#45;&gt; not_prime&#10;Probability 3.12%">
<path fill="none" stroke="black" d="M223.1,-136C223.1,-121.02 217,-105.92 209.82,-93.33"/>
<polygon fill="black" stroke="black" points="212.7,-91.32 204.47,-84.64 206.73,-95 212.7,-91.32"/>
</a>
</g>
</g>
<!-- Node0x58aed9b16db0 -->
<g id="node7" class="node">
<title>Node0x58aed9b16db0</title>
<polygon fill="#b70d28" fill-opacity="0.439216" stroke="#b70d28" points="326.1,-23.5 326.1,-99.5 664.1,-99.5 664.1,-23.5 326.1,-23.5"/>
<text text-anchor="start" x="334.1" y="-84.3" font-family="Courier,monospace" font-size="14.00">loop_inc:</text>
<polyline fill="none" stroke="#b70d28" points="326.1,-76.5 664.1,-76.5 "/>
<text text-anchor="start" x="334.1" y="-61.3" font-family="Courier,monospace" font-size="14.00">%i_new = add i32 %i, 1</text>
<text text-anchor="start" x="334.1" y="-46.3" font-family="Courier,monospace" font-size="14.00"> store i32 %i_new, ptr %i_addr, align 4</text>
<text text-anchor="start" x="334.1" y="-31.3" font-family="Courier,monospace" font-size="14.00"> br label %loop_cond</text>
</g>
<!-- Node0x58aed9b16570&#45;&gt;Node0x58aed9b16db0 -->
<g id="edge7" class="edge">
<title>Node0x58aed9b16570:s1&#45;&gt;Node0x58aed9b16db0</title>
<g id="a_edge7"><a xlink:title="for_body &#45;&gt; loop_inc&#10;Probability 96.88%">
<path fill="none" stroke="black" d="M459.1,-136C459.1,-126.82 461.4,-117.59 464.83,-108.92"/>
<polygon fill="black" stroke="black" points="468.04,-110.32 468.94,-99.76 461.65,-107.45 468.04,-110.32"/>
</a>
</g>
</g>
<!-- Node0x58aed9b16db0&#45;&gt;Node0x58aed9b163b0 -->
<g id="edge8" class="edge">
<title>Node0x58aed9b16db0&#45;&gt;Node0x58aed9b163b0</title>
<g id="a_edge8"><a xlink:title="loop_inc &#45;&gt; loop_cond&#10;Probability 100.00%">
<path fill="none" stroke="black" d="M556.27,-99.87C567.93,-110.04 578.53,-122.15 585.1,-136 604.15,-176.15 600.82,-194.43 585.1,-236 581.32,-246.01 575.76,-255.6 569.35,-264.49"/>
<polygon fill="black" stroke="black" points="566.55,-262.4 563.25,-272.46 572.11,-266.65 566.55,-262.4"/>
</a>
</g>
</g>
</g>
</svg>
