<?xml version="1.0" encoding="UTF-8" standalone="no"?>
<!DOCTYPE svg PUBLIC "-//W3C//DTD SVG 1.1//EN"
 "http://www.w3.org/Graphics/SVG/1.1/DTD/svg11.dtd">
<!-- Generated by graphviz version 2.43.0 (0)
 -->
<!-- Title: CFG for &#39;is_prime&#39; function Pages: 1 -->
<svg width="697pt" height="863pt"
 viewBox="0.00 0.00 696.92 863.00" xmlns="http://www.w3.org/2000/svg" xmlns:xlink="http://www.w3.org/1999/xlink">
<g id="graph0" class="graph" transform="scale(1 1) rotate(0) translate(4 859)">
<title>CFG for &#39;is_prime&#39; function</title>
<polygon fill="white" stroke="transparent" points="-4,4 -4,-859 692.92,-859 692.92,4 -4,4"/>
<text text-anchor="middle" x="344.46" y="-7.8" font-family="Times,serif" font-size="14.00">CFG for &#39;is_prime&#39; function</text>
<!-- Node0x6227a4eaca00 -->
<g id="node1" class="node">
<title>Node0x6227a4eaca00</title>
<polygon fill="#c53334" fill-opacity="0.439216" stroke="#3d50c3" points="15,-770.5 15,-854.5 279,-854.5 279,-770.5 15,-770.5"/>
<text text-anchor="start" x="23" y="-839.3" font-family="Courier,monospace" font-size="14.00">1:</text>
<polyline fill="none" stroke="#3d50c3" points="15,-831.5 279,-831.5 "/>
<text text-anchor="start" x="23" y="-816.3" font-family="Courier,monospace" font-size="14.00">%2 = icmp slt i32 %0, 2</text>
<text text-anchor="start" x="23" y="-801.3" font-family="Courier,monospace" font-size="14.00"> br i1 %2, label %19, label %3</text>
<polyline fill="none" stroke="#3d50c3" points="15,-793.5 279,-793.5 "/>
<text text-anchor="middle" x="81" y="-778.3" font-family="Courier,monospace" font-size="14.00">T</text>
<polyline fill="none" stroke="#3d50c3" points="147,-770.5 147,-793.5 "/>
<text text-anchor="middle" x="213" y="-778.3" font-family="Courier,monospace" font-size="14.00">F</text>
</g>
<!-- Node0x6227a4eac900 -->
<g id="node2" class="node">
<title>Node0x6227a4eac900</title>
<polygon fill="#c53334" fill-opacity="0.439216" stroke="#3d50c3" points="0,-23.5 0,-84.5 322,-84.5 322,-23.5 0,-23.5"/>
<text text-anchor="start" x="8" y="-69.3" font-family="Courier,monospace" font-size="14.00">19:</text>
<polyline fill="none" stroke="#3d50c3" points="0,-61.5 322,-61.5 "/>
<text text-anchor="start" x="8" y="-46.3" font-family="Courier,monospace" font-size="14.00">%20 = phi i32 [ 0, %1 ], [ %18, %16 ]</text>
<text text-anchor="start" x="8" y="-31.3" font-family="Courier,monospace" font-size="14.00"> ret i32 %20</text>
</g>
<!-- Node0x6227a4eaca00&#45;&gt;Node0x6227a4eac900 -->
<g id="edge1" class="edge">
<title>Node0x6227a4eaca00:s0&#45;&gt;Node0x6227a4eac900</title>
<g id="a_edge1"><a xlink:title="1 &#45;&gt; 19&#10;Probability 50.00%">
<path fill="none" stroke="black" d="M81,-770C81,-661.6 67,-634.9 67,-526.5 67,-526.5 67,-526.5 67,-264 67,-199.89 55.79,-177.55 86,-121 91.87,-110.01 100.34,-100 109.51,-91.27"/>
<polygon fill="black" stroke="black" points="111.87,-93.85 116.96,-84.56 107.19,-88.65 111.87,-93.85"/>
</a>
</g>
</g>
<!-- Node0x6227a4eae6d0 -->
<g id="node3" class="node">
<title>Node0x6227a4eae6d0</title>
<polygon fill="#cc403a" fill-opacity="0.439216" stroke="#3d50c3" points="95,-619.5 95,-733.5 359,-733.5 359,-619.5 95,-619.5"/>
<text text-anchor="start" x="103" y="-718.3" font-family="Courier,monospace" font-size="14.00">3:</text>
<polyline fill="none" stroke="#3d50c3" points="95,-710.5 359,-710.5 "/>
<text text-anchor="start" x="103" y="-695.3" font-family="Courier,monospace" font-size="14.00">%4 = icmp eq i32 %0, 2</text>
<text text-anchor="start" x="103" y="-680.3" font-family="Courier,monospace" font-size="14.00"> %5 = and i32 %0, 1</text>
<text text-anchor="start" x="103" y="-665.3" font-family="Courier,monospace" font-size="14.00"> %6 = icmp eq i32 %5, 0</text>
<text text-anchor="start" x="103" y="-650.3" font-family="Courier,monospace" font-size="14.00"> br i1 %6, label %16, label %7</text>
<polyline fill="none" stroke="#3d50c3" points="95,-642.5 359,-642.5 "/>
<text text-anchor="middle" x="161" y="-627.3" font-family="Courier,monospace" font-size="14.00">T</text>
<polyline fill="none" stroke="#3d50c3" points="227,-619.5 227,-642.5 "/>
<text text-anchor="middle" x="293" y="-627.3" font-family="Courier,monospace" font-size="14.00">F</text>
</g>
<!-- Node0x6227a4eaca00&#45;&gt;Node0x6227a4eae6d0 -->
<g id="edge2" class="edge">
<title>Node0x6227a4eaca00:s1&#45;&gt;Node0x6227a4eae6d0</title>
<g id="a_edge2"><a xlink:title="1 &#45;&gt; 3&#10;Probability 50.00%">
<path fill="none" stroke="black" d="M213,-770C213,-761.39 213.6,-752.37 214.55,-743.49"/>
<polygon fill="black" stroke="black" points="218.03,-743.9 215.77,-733.55 211.08,-743.05 218.03,-743.9"/>
</a>
</g>
</g>
<!-- Node0x6227a4eaf090 -->
<g id="node4" class="node">
<title>Node0x6227a4eaf090</title>
<polygon fill="#cc403a" fill-opacity="0.439216" stroke="#3d50c3" points="95,-121.5 95,-197.5 417,-197.5 417,-121.5 95,-121.5"/>
<text text-anchor="start" x="103" y="-182.3" font-family="Courier,monospace" font-size="14.00">16:</text>
<polyline fill="none" stroke="#3d50c3" points="95,-174.5 417,-174.5 "/>
<text text-anchor="start" x="103" y="-159.3" font-family="Courier,monospace" font-size="14.00">%17 = phi i1 [ %4, %3 ], [ %15, %14 ]</text>
<text text-anchor="start" x="103" y="-144.3" font-family="Courier,monospace" font-size="14.00"> %18 = zext i1 %17 to i32</text>
<text text-anchor="start" x="103" y="-129.3" font-family="Courier,monospace" font-size="14.00"> br label %19</text>
</g>
<!-- Node0x6227a4eae6d0&#45;&gt;Node0x6227a4eaf090 -->
<g id="edge3" class="edge">
<title>Node0x6227a4eae6d0:s0&#45;&gt;Node0x6227a4eaf090</title>
<g id="a_edge3"><a xlink:title="3 &#45;&gt; 16&#10;Probability 50.00%">
<path fill="none" stroke="black" d="M161,-619C161,-602.9 157.89,-599.07 157,-583 152.99,-510.58 151.39,-247.15 158,-234 163.58,-222.9 171.71,-213.05 180.94,-204.44"/>
<polygon fill="black" stroke="black" points="183.31,-207.01 188.55,-197.81 178.71,-201.74 183.31,-207.01"/>
</a>
</g>
</g>
<!-- Node0x6227a4eaf0e0 -->
<g id="node5" class="node">
<title>Node0x6227a4eaf0e0</title>
<polygon fill="#b70d28" fill-opacity="0.439216" stroke="#b70d28" points="166,-468.5 166,-582.5 570,-582.5 570,-468.5 166,-468.5"/>
<text text-anchor="start" x="174" y="-567.3" font-family="Courier,monospace" font-size="14.00">7:</text>
<polyline fill="none" stroke="#b70d28" points="166,-559.5 570,-559.5 "/>
<text text-anchor="start" x="174" y="-544.3" font-family="Courier,monospace" font-size="14.00">%8 = phi i32 [ %9, %11 ], [ 2, %3 ]</text>
<text text-anchor="start" x="174" y="-529.3" font-family="Courier,monospace" font-size="14.00"> %9 = add nuw nsw i32 %8, 1</text>
<text text-anchor="start" x="174" y="-514.3" font-family="Courier,monospace" font-size="14.00"> %10 = icmp eq i32 %9, %0</text>
<text text-anchor="start" x="174" y="-499.3" font-family="Courier,monospace" font-size="14.00"> br i1 %10, label %14, label %11, !llvm.loop !5</text>
<polyline fill="none" stroke="#b70d28" points="166,-491.5 570,-491.5 "/>
<text text-anchor="middle" x="267" y="-476.3" font-family="Courier,monospace" font-size="14.00">T</text>
<polyline fill="none" stroke="#b70d28" points="368,-468.5 368,-491.5 "/>
<text text-anchor="middle" x="469" y="-476.3" font-family="Courier,monospace" font-size="14.00">F</text>
</g>
<!-- Node0x6227a4eae6d0&#45;&gt;Node0x6227a4eaf0e0 -->
<g id="edge4" class="edge">
<title>Node0x6227a4eae6d0:s1&#45;&gt;Node0x6227a4eaf0e0</title>
<g id="a_edge4"><a xlink:title="3 &#45;&gt; 7&#10;Probability 50.00%">
<path fill="none" stroke="black" d="M360,-630.5C378.83,-630.5 383.68,-613.34 382.81,-592.96"/>
<polygon fill="black" stroke="black" points="386.28,-592.43 381.95,-582.76 379.3,-593.02 386.28,-592.43"/>
</a>
</g>
</g>
<!-- Node0x6227a4eaf090&#45;&gt;Node0x6227a4eac900 -->
<g id="edge10" class="edge">
<title>Node0x6227a4eaf090&#45;&gt;Node0x6227a4eac900</title>
<g id="a_edge10"><a xlink:title="16 &#45;&gt; 19&#10;Probability 100.00%">
<path fill="none" stroke="black" d="M221.97,-121.43C213.23,-111.91 203.83,-101.66 195.09,-92.14"/>
<polygon fill="black" stroke="black" points="197.59,-89.69 188.25,-84.68 192.43,-94.42 197.59,-89.69"/>
</a>
</g>
</g>
<!-- Node0x6227a4eaf2e0 -->
<g id="node6" class="node">
<title>Node0x6227a4eaf2e0</title>
<polygon fill="#d0473d" fill-opacity="0.439216" stroke="#3d50c3" points="166.5,-234.5 166.5,-295.5 389.5,-295.5 389.5,-234.5 166.5,-234.5"/>
<text text-anchor="start" x="174.5" y="-280.3" font-family="Courier,monospace" font-size="14.00">14:</text>
<polyline fill="none" stroke="#3d50c3" points="166.5,-272.5 389.5,-272.5 "/>
<text text-anchor="start" x="174.5" y="-257.3" font-family="Courier,monospace" font-size="14.00">%15 = icmp sge i32 %9, %0</text>
<text text-anchor="start" x="174.5" y="-242.3" font-family="Courier,monospace" font-size="14.00"> br label %16</text>
</g>
<!-- Node0x6227a4eaf0e0&#45;&gt;Node0x6227a4eaf2e0 -->
<g id="edge5" class="edge">
<title>Node0x6227a4eaf0e0:s0&#45;&gt;Node0x6227a4eaf2e0</title>
<g id="a_edge5"><a xlink:title="7 &#45;&gt; 14&#10;Probability 3.12%">
<path fill="none" stroke="black" d="M267,-468C267,-451.85 263.11,-448.12 262,-432 258.94,-387.66 256.73,-376.13 262,-332 263.04,-323.33 264.81,-314.16 266.81,-305.5"/>
<polygon fill="black" stroke="black" points="270.25,-306.17 269.23,-295.62 263.45,-304.5 270.25,-306.17"/>
</a>
</g>
</g>
<!-- Node0x6227a4eaf250 -->
<g id="node7" class="node">
<title>Node0x6227a4eaf250</title>
<polygon fill="#b70d28" fill-opacity="0.439216" stroke="#b70d28" points="271,-332.5 271,-431.5 667,-431.5 667,-332.5 271,-332.5"/>
<text text-anchor="start" x="279" y="-416.3" font-family="Courier,monospace" font-size="14.00">11:</text>
<polyline fill="none" stroke="#b70d28" points="271,-408.5 667,-408.5 "/>
<text text-anchor="start" x="279" y="-393.3" font-family="Courier,monospace" font-size="14.00">%12 = urem i32 %0, %9</text>
<text text-anchor="start" x="279" y="-378.3" font-family="Courier,monospace" font-size="14.00"> %13 = icmp eq i32 %12, 0</text>
<text text-anchor="start" x="279" y="-363.3" font-family="Courier,monospace" font-size="14.00"> br i1 %13, label %14, label %7, !llvm.loop !5</text>
<polyline fill="none" stroke="#b70d28" points="271,-355.5 667,-355.5 "/>
<text text-anchor="middle" x="370" y="-340.3" font-family="Courier,monospace" font-size="14.00">T</text>
<polyline fill="none" stroke="#b70d28" points="469,-332.5 469,-355.5 "/>
<text text-anchor="middle" x="568" y="-340.3" font-family="Courier,monospace" font-size="14.00">F</text>
</g>
<!-- Node0x6227a4eaf0e0&#45;&gt;Node0x6227a4eaf250 -->
<g id="edge6" class="edge">
<title>Node0x6227a4eaf0e0:s1&#45;&gt;Node0x6227a4eaf250</title>
<g id="a_edge6"><a xlink:title="7 &#45;&gt; 11&#10;Probability 96.88%">
<path fill="none" stroke="black" d="M469,-468C469,-459.51 469,-450.55 469,-441.76"/>
<polygon fill="black" stroke="black" points="472.5,-441.55 469,-431.55 465.5,-441.55 472.5,-441.55"/>
</a>
</g>
</g>
<!-- Node0x6227a4eaf2e0&#45;&gt;Node0x6227a4eaf090 -->
<g id="edge9" class="edge">
<title>Node0x6227a4eaf2e0&#45;&gt;Node0x6227a4eaf090</title>
<g id="a_edge9"><a xlink:title="14 &#45;&gt; 16&#10;Probability 100.00%">
<path fill="none" stroke="black" d="M271.7,-234.34C269.91,-225.92 267.91,-216.53 265.96,-207.36"/>
<polygon fill="black" stroke="black" points="269.38,-206.59 263.87,-197.54 262.53,-208.05 269.38,-206.59"/>
</a>
</g>
</g>
<!-- Node0x6227a4eaf250&#45;&gt;Node0x6227a4eaf0e0 -->
<g id="edge8" class="edge">
<title>Node0x6227a4eaf250:s1&#45;&gt;Node0x6227a4eaf0e0</title>
<g id="a_edge8"><a xlink:title="11 &#45;&gt; 7&#10;Probability 96.88%">
<path fill="none" stroke="black" d="M568,-331C568,-309 651.52,-316.36 667,-332 698.27,-363.59 693.38,-396.23 667,-432 654.14,-449.45 620.25,-465 579.69,-478.15"/>
<polygon fill="black" stroke="black" points="578.58,-474.83 570.1,-481.18 580.69,-481.51 578.58,-474.83"/>
</a>
</g>
</g>
<!-- Node0x6227a4eaf250&#45;&gt;Node0x6227a4eaf2e0 -->
<g id="edge7" class="edge">
<title>Node0x6227a4eaf250:s0&#45;&gt;Node0x6227a4eaf2e0</title>
<g id="a_edge7"><a xlink:title="11 &#45;&gt; 14&#10;Probability 3.12%">
<path fill="none" stroke="black" d="M270,-344C261.42,-344 263.23,-325.1 267.27,-305.9"/>
<polygon fill="black" stroke="black" points="270.74,-306.46 269.55,-295.93 263.91,-304.9 270.74,-306.46"/>
</a>
</g>
</g>
</g>
</svg>
