<?xml version="1.0" encoding="UTF-8" standalone="no"?>
<!DOCTYPE svg PUBLIC "-//W3C//DTD SVG 1.1//EN"
 "http://www.w3.org/Graphics/SVG/1.1/DTD/svg11.dtd">
<!-- Generated by graphviz version 2.43.0 (0)
 -->
<!-- Title: CFG for &#39;is_prime&#39; function Pages: 1 -->
<svg width="649pt" height="486pt"
 viewBox="0.00 0.00 649.00 486.00" xmlns="http://www.w3.org/2000/svg" xmlns:xlink="http://www.w3.org/1999/xlink">
<g id="graph0" class="graph" transform="scale(1 1) rotate(0) translate(4 482)">
<title>CFG for &#39;is_prime&#39; function</title>
<polygon fill="white" stroke="transparent" points="-4,4 -4,-482 645,-482 645,4 -4,4"/>
<text text-anchor="middle" x="320.5" y="-7.8" font-family="Times,serif" font-size="14.00">CFG for &#39;is_prime&#39; function</text>
<!-- Node0x63d8ed09c170 -->
<g id="node1" class="node">
<title>Node0x63d8ed09c170</title>
<polygon fill="#cc403a" fill-opacity="0.439216" stroke="#3d50c3" points="0,-393.5 0,-477.5 396,-477.5 396,-393.5 0,-393.5"/>
<text text-anchor="start" x="8" y="-462.3" font-family="Courier,monospace" font-size="14.00">entrance:</text>
<polyline fill="none" stroke="#3d50c3" points="0,-454.5 396,-454.5 "/>
<text text-anchor="start" x="8" y="-439.3" font-family="Courier,monospace" font-size="14.00">%cmp = icmp sle i32 %n, 1</text>
<text text-anchor="start" x="8" y="-424.3" font-family="Courier,monospace" font-size="14.00"> br i1 %cmp, label %not_prime, label %for_body</text>
<polyline fill="none" stroke="#3d50c3" points="0,-416.5 396,-416.5 "/>
<text text-anchor="middle" x="99" y="-401.3" font-family="Courier,monospace" font-size="14.00">T</text>
<polyline fill="none" stroke="#3d50c3" points="198,-393.5 198,-416.5 "/>
<text text-anchor="middle" x="297" y="-401.3" font-family="Courier,monospace" font-size="14.00">F</text>
</g>
<!-- Node0x63d8ed09d980 -->
<g id="node2" class="node">
<title>Node0x63d8ed09d980</title>
<polygon fill="#cc403a" fill-opacity="0.439216" stroke="#3d50c3" points="72.5,-125.5 72.5,-171.5 171.5,-171.5 171.5,-125.5 72.5,-125.5"/>
<text text-anchor="start" x="80.5" y="-156.3" font-family="Courier,monospace" font-size="14.00">not_prime:</text>
<polyline fill="none" stroke="#3d50c3" points="72.5,-148.5 171.5,-148.5 "/>
<text text-anchor="start" x="80.5" y="-133.3" font-family="Courier,monospace" font-size="14.00">ret i32 0</text>
</g>
<!-- Node0x63d8ed09c170&#45;&gt;Node0x63d8ed09d980 -->
<g id="edge1" class="edge">
<title>Node0x63d8ed09c170:s0&#45;&gt;Node0x63d8ed09d980</title>
<g id="a_edge1"><a xlink:title="entrance &#45;&gt; not_prime&#10;Probability 50.00%">
<path fill="none" stroke="black" d="M99,-393C99,-375.99 88.93,-373.76 86,-357 76.04,-300.09 73.54,-283.42 86,-227 89.54,-210.99 96.73,-194.36 103.76,-180.63"/>
<polygon fill="black" stroke="black" points="106.94,-182.11 108.55,-171.64 100.76,-178.81 106.94,-182.11"/>
</a>
</g>
</g>
<!-- Node0x63d8ed09da00 -->
<g id="node3" class="node">
<title>Node0x63d8ed09da00</title>
<polygon fill="#b70d28" fill-opacity="0.439216" stroke="#b70d28" points="95,-227.5 95,-356.5 565,-356.5 565,-227.5 95,-227.5"/>
<text text-anchor="start" x="103" y="-341.3" font-family="Courier,monospace" font-size="14.00">for_body:</text>
<polyline fill="none" stroke="#b70d28" points="95,-333.5 565,-333.5 "/>
<text text-anchor="start" x="103" y="-318.3" font-family="Courier,monospace" font-size="14.00">%i = phi i32 [ 2, %entrance ], [ %next_i, %loop_inc ]</text>
<text text-anchor="start" x="103" y="-303.3" font-family="Courier,monospace" font-size="14.00"> %next_i = add i32 %i, 1</text>
<text text-anchor="start" x="103" y="-288.3" font-family="Courier,monospace" font-size="14.00"> %remainder = srem i32 %n, %i</text>
<text text-anchor="start" x="103" y="-273.3" font-family="Courier,monospace" font-size="14.00"> %is_divisible = icmp eq i32 %remainder, 0</text>
<text text-anchor="start" x="103" y="-258.3" font-family="Courier,monospace" font-size="14.00"> br i1 %is_divisible, label %not_prime, label %loop_inc</text>
<polyline fill="none" stroke="#b70d28" points="95,-250.5 565,-250.5 "/>
<text text-anchor="middle" x="212.5" y="-235.3" font-family="Courier,monospace" font-size="14.00">T</text>
<polyline fill="none" stroke="#b70d28" points="330,-227.5 330,-250.5 "/>
<text text-anchor="middle" x="447.5" y="-235.3" font-family="Courier,monospace" font-size="14.00">F</text>
</g>
<!-- Node0x63d8ed09c170&#45;&gt;Node0x63d8ed09da00 -->
<g id="edge2" class="edge">
<title>Node0x63d8ed09c170:s1&#45;&gt;Node0x63d8ed09da00</title>
<g id="a_edge2"><a xlink:title="entrance &#45;&gt; for_body&#10;Probability 50.00%">
<path fill="none" stroke="black" d="M297,-393C297,-384.23 298.16,-375.24 300.04,-366.42"/>
<polygon fill="black" stroke="black" points="303.48,-367.09 302.45,-356.55 296.68,-365.43 303.48,-367.09"/>
</a>
</g>
</g>
<!-- Node0x63d8ed09da00&#45;&gt;Node0x63d8ed09d980 -->
<g id="edge3" class="edge">
<title>Node0x63d8ed09da00:s0&#45;&gt;Node0x63d8ed09d980</title>
<g id="a_edge3"><a xlink:title="for_body &#45;&gt; not_prime&#10;Probability 3.12%">
<path fill="none" stroke="black" d="M94,-239C81.46,-239 94.16,-206.58 106.25,-180.76"/>
<polygon fill="black" stroke="black" points="109.47,-182.15 110.64,-171.62 103.16,-179.13 109.47,-182.15"/>
</a>
</g>
</g>
<!-- Node0x63d8ed09e220 -->
<g id="node4" class="node">
<title>Node0x63d8ed09e220</title>
<polygon fill="#b70d28" fill-opacity="0.439216" stroke="#b70d28" points="237,-106.5 237,-190.5 641,-190.5 641,-106.5 237,-106.5"/>
<text text-anchor="start" x="245" y="-175.3" font-family="Courier,monospace" font-size="14.00">loop_inc:</text>
<polyline fill="none" stroke="#b70d28" points="237,-167.5 641,-167.5 "/>
<text text-anchor="start" x="245" y="-152.3" font-family="Courier,monospace" font-size="14.00">%is_prime = icmp ne i32 %next_i, %n</text>
<text text-anchor="start" x="245" y="-137.3" font-family="Courier,monospace" font-size="14.00"> br i1 %is_prime, label %for_body, label %prime</text>
<polyline fill="none" stroke="#b70d28" points="237,-129.5 641,-129.5 "/>
<text text-anchor="middle" x="338" y="-114.3" font-family="Courier,monospace" font-size="14.00">T</text>
<polyline fill="none" stroke="#b70d28" points="439,-106.5 439,-129.5 "/>
<text text-anchor="middle" x="540" y="-114.3" font-family="Courier,monospace" font-size="14.00">F</text>
</g>
<!-- Node0x63d8ed09da00&#45;&gt;Node0x63d8ed09e220 -->
<g id="edge4" class="edge">
<title>Node0x63d8ed09da00:s1&#45;&gt;Node0x63d8ed09e220</title>
<g id="a_edge4"><a xlink:title="for_body &#45;&gt; loop_inc&#10;Probability 96.88%">
<path fill="none" stroke="black" d="M448,-227C448,-218.53 447.46,-209.57 446.65,-200.87"/>
<polygon fill="black" stroke="black" points="450.12,-200.4 445.59,-190.82 443.16,-201.14 450.12,-200.4"/>
</a>
</g>
</g>
<!-- Node0x63d8ed09e220&#45;&gt;Node0x63d8ed09da00 -->
<g id="edge5" class="edge">
<title>Node0x63d8ed09e220:s0&#45;&gt;Node0x63d8ed09da00</title>
<g id="a_edge5"><a xlink:title="loop_inc &#45;&gt; for_body&#10;Probability 96.88%">
<path fill="none" stroke="black" d="M338,-105.5C338,-83.05 252.79,-90.55 237,-106.5 205.78,-138.03 226.45,-182.17 256.14,-219.37"/>
<polygon fill="black" stroke="black" points="253.54,-221.71 262.6,-227.19 258.94,-217.25 253.54,-221.71"/>
</a>
</g>
</g>
<!-- Node0x63d8ed09e930 -->
<g id="node5" class="node">
<title>Node0x63d8ed09e930</title>
<polygon fill="#d65244" fill-opacity="0.439216" stroke="#3d50c3" points="494.5,-23.5 494.5,-69.5 585.5,-69.5 585.5,-23.5 494.5,-23.5"/>
<text text-anchor="start" x="502.5" y="-54.3" font-family="Courier,monospace" font-size="14.00">prime:</text>
<polyline fill="none" stroke="#3d50c3" points="494.5,-46.5 585.5,-46.5 "/>
<text text-anchor="start" x="502.5" y="-31.3" font-family="Courier,monospace" font-size="14.00">ret i32 1</text>
</g>
<!-- Node0x63d8ed09e220&#45;&gt;Node0x63d8ed09e930 -->
<g id="edge6" class="edge">
<title>Node0x63d8ed09e220:s1&#45;&gt;Node0x63d8ed09e930</title>
<g id="a_edge6"><a xlink:title="loop_inc &#45;&gt; prime&#10;Probability 3.12%">
<path fill="none" stroke="black" d="M540,-106C540,-97.57 540,-88.46 540,-80"/>
<polygon fill="black" stroke="black" points="543.5,-79.72 540,-69.72 536.5,-79.72 543.5,-79.72"/>
</a>
</g>
</g>
</g>
</svg>
